<?xml version="1.0" standalone="no"?>
<!DOCTYPE svg PUBLIC "-//W3C//DTD SVG 20010904//EN"
 "http://www.w3.org/TR/2001/REC-SVG-20010904/DTD/svg10.dtd">
<svg version="1.0" xmlns="http://www.w3.org/2000/svg"
 width="1200.000000pt" height="1200.000000pt" viewBox="0 0 1200.000000 1200.000000"
 preserveAspectRatio="xMidYMid meet">
<metadata>
Created by potrace 1.11, written by Peter Selinger 2001-2013
</metadata>
<g transform="translate(0.000000,1200.000000) scale(0.100000,-0.100000)"
fill="#000000" stroke="none">
<path d="M0 6000 l0 -6000 6000 0 6000 0 0 6000 0 6000 -6000 0 -6000 0 0
-6000z m9700 3814 c41 -9 97 -64 107 -106 4 -18 6 -1699 3 -3735 l-5 -3703
-37 -36 c-31 -32 -44 -38 -90 -41 -65 -5 -114 18 -143 68 -20 34 -20 54 -23
3534 l-2 3500 -3548 -3547 c-3204 -3204 -3551 -3547 -3585 -3554 -66 -11 -108
1 -149 45 -34 36 -38 46 -38 91 0 28 6 63 14 78 8 15 1606 1618 3550 3562
l3536 3535 -3497 5 c-3288 5 -3500 6 -3530 22 -46 26 -73 76 -73 137 0 46 4
56 38 93 27 28 50 43 78 48 47 9 7348 13 7394 4z"/>
</g>
</svg>
